<svg width="28" height="41" viewBox="0 0 28 41" fill="none" xmlns="http://www.w3.org/2000/svg">
<path d="M27.7392 33.6153C26.1573 31.4404 21.7814 25.702 18.1891 20.9796C19.6436 18.9122 20.8034 17.2236 21.3342 16.34C24.5628 10.972 23.1606 7.52434 21.3802 4.60648C19.5955 1.68656 19.3134 0 14.0013 0C8.68711 0 8.405 1.68656 6.62246 4.60855C4.83782 7.52641 3.4377 10.974 6.66634 16.3421C7.19713 17.2236 8.35694 18.9143 9.81348 20.9816C6.21914 25.7019 1.84324 31.4425 0.26131 33.6174C-0.106483 34.1223 -0.0730474 34.9915 0.280118 35.8565C0.551783 36.5228 1.59665 39.5028 1.8516 40.1277C2.17759 40.9327 3.23918 41.5142 4.11269 40.3181C4.61631 39.6269 9.50838 33.0235 14.0013 26.8215C18.4921 33.0214 23.3863 39.6269 23.8899 40.3181C24.7613 41.5142 25.825 40.9327 26.151 40.1277C26.406 39.5007 27.4508 36.5228 27.7225 35.8565C28.0715 34.9894 28.107 34.1203 27.7392 33.6153ZM13.2365 14.4216C11.0046 11.3507 9.40807 7.77681 9.40807 7.77681C9.40807 7.77681 10.2858 6.2082 14.0013 6.2082C17.7169 6.2082 18.5945 7.77681 18.5945 7.77681C18.5945 7.77681 16.9938 11.3507 14.7641 14.4216L14.0013 15.4501C13.7437 15.1092 13.4888 14.7664 13.2365 14.4216Z" fill="#73BE01"/>
</svg>
